<?xml version="1.0" standalone="no"?>
<!DOCTYPE svg PUBLIC "-//W3C//DTD SVG 20010904//EN"
 "http://www.w3.org/TR/2001/REC-SVG-20010904/DTD/svg10.dtd">
<svg version="1.0" xmlns="http://www.w3.org/2000/svg"
 width="1000.000000pt" height="250.000000pt" viewBox="0 0 1000.000000 250.000000"
 preserveAspectRatio="xMidYMid meet">

<g transform="translate(0.000000,250.000000) scale(0.100000,-0.100000)"
fill="#000000" stroke="none">
<path d="M885 1930 c-47 -11 -66 -24 -134 -94 -52 -55 -61 -69 -51 -81 20 -24
32 -18 95 45 68 68 109 86 167 69 21 -5 46 -21 58 -36 l20 -26 0 45 c0 42 -2
46 -37 61 -51 21 -82 26 -118 17z"/>
<path d="M9085 1933 c-11 -2 -37 -11 -57 -20 -36 -15 -38 -19 -38 -61 l0 -45
21 26 c26 34 83 50 129 37 20 -6 60 -35 96 -71 63 -62 94 -72 94 -31 0 26
-130 149 -166 157 -51 12 -59 13 -79 8z"/>
<path d="M604 1685 c-8 -21 2 -45 19 -45 8 0 20 7 27 15 10 12 10 18 0 30 -7
8 -19 15 -27 15 -7 0 -16 -7 -19 -15z"/>
<path d="M9376 1684 c-9 -22 17 -49 39 -40 10 3 15 15 13 28 -4 29 -42 37 -52
12z"/>
<path d="M853 1499 l-183 -186 0 -47 c0 -26 5 -57 11 -69 6 -12 90 -101 185
-198 l174 -175 0 40 c0 38 -7 47 -149 190 -147 148 -176 188 -164 223 3 10 75
88 160 174 151 153 154 156 151 195 l-3 39 -182 -186z"/>
<path d="M8990 1646 c0 -39 6 -47 156 -197 185 -185 185 -186 106 -276 -28
-32 -98 -105 -156 -163 -100 -99 -106 -107 -106 -145 l0 -41 174 175 c95 97
179 186 185 198 6 12 11 43 11 69 l0 47 -185 187 -185 187 0 -41z"/>
<path d="M5000 1643 c-37 -6 -110 -34 -110 -42 0 -4 16 -23 36 -42 34 -33 37
-34 122 -34 77 0 93 -4 141 -30 97 -53 151 -158 138 -267 -8 -61 -11 -66 -36
-44 -10 10 -21 14 -24 9 -3 -4 -8 -48 -12 -96 l-8 -89 59 7 c33 3 76 9 98 12
38 5 38 5 18 25 -19 20 -19 20 5 91 48 137 14 278 -91 382 -97 96 -214 138
-336 118z"/>
<path d="M7226 1638 c5 -7 70 -102 146 -210 l138 -198 0 -179 c0 -201 -4 -191
80 -191 84 0 80 -10 80 192 l0 181 122 176 c67 97 133 191 147 210 l26 34 -50
-7 c-64 -9 -141 -44 -187 -85 -20 -18 -60 -68 -88 -112 l-52 -81 -59 91 c-47
74 -69 98 -119 130 -73 47 -204 82 -184 49z"/>
<path d="M2260 1630 c-113 -24 -209 -101 -257 -207 -35 -76 -43 -212 -19 -299
43 -148 149 -239 308 -265 72 -12 179 2 244 30 l42 19 38 -39 c21 -21 43 -39
49 -39 13 1 95 75 95 87 0 5 -16 24 -35 43 -35 33 -44 63 -25 75 5 3 19 38 31
77 32 104 24 233 -20 322 -39 80 -111 147 -189 176 -64 24 -194 34 -262 20z
m228 -172 c59 -40 94 -104 100 -187 4 -65 -10 -141 -27 -141 -4 0 -18 12 -32
26 -48 53 -150 78 -227 57 -22 -5 -17 -13 69 -99 l93 -93 -28 -11 c-15 -5 -50
-10 -77 -10 -125 0 -216 90 -226 225 -9 110 36 202 118 244 65 32 179 27 237
-11z"/>
<path d="M5757 1629 c-148 -35 -228 -187 -166 -316 24 -50 76 -85 159 -109
210 -59 220 -65 220 -134 0 -56 -35 -83 -107 -84 -76 -1 -117 23 -139 81 l-17
43 -80 0 -80 0 5 -51 c7 -72 49 -125 132 -168 60 -32 73 -34 153 -34 190 1
293 86 293 244 0 121 -56 174 -230 218 -60 16 -120 36 -134 45 -49 31 -46 105
4 131 68 35 162 5 178 -57 l8 -33 75 0 c70 0 74 1 77 23 2 13 -8 47 -22 75
-52 106 -190 159 -329 126z"/>
<path d="M2864 1617 c-3 -8 -4 -138 -2 -288 3 -253 5 -277 24 -319 55 -118
186 -176 340 -149 130 23 205 107 224 250 5 41 10 174 10 296 l0 222 -32 -10
c-43 -12 -86 -55 -111 -109 -17 -38 -21 -71 -24 -225 -3 -99 -9 -195 -15 -213
-19 -62 -105 -89 -187 -61 -61 21 -65 43 -71 344 l-5 270 -73 3 c-55 2 -74 0
-78 -11z"/>
<path d="M3587 1623 c-4 -3 -7 -181 -7 -395 l0 -388 38 15 c82 33 122 112 122
240 0 49 3 66 13 63 6 -3 56 -67 109 -143 54 -76 104 -142 110 -147 17 -10
159 -10 176 0 9 6 -4 31 -52 95 -79 106 -105 130 -178 166 -59 29 -64 41 -18
41 45 0 113 29 147 62 42 40 57 86 56 169 -2 117 -59 189 -171 215 -59 14
-333 20 -345 7z m329 -164 c20 -20 26 -36 26 -71 0 -82 -33 -108 -137 -108
l-65 0 0 106 0 106 75 -4 c65 -3 79 -7 101 -29z"/>
<path d="M4210 1555 l0 -75 118 0 117 0 -31 -19 c-76 -46 -94 -104 -94 -297
l0 -154 -55 0 -56 0 3 -72 3 -73 174 -3 c122 -2 178 1 188 9 10 9 13 30 11 73
l-3 61 -52 3 -53 3 0 234 0 234 53 3 52 3 0 70 0 70 -187 3 -188 2 0 -75z"/>
<path d="M6214 1617 c-3 -8 -4 -41 -2 -73 l3 -59 114 -3 113 -3 -46 -40 c-63
-56 -76 -103 -76 -285 l0 -143 -52 -3 -53 -3 -3 -64 c-2 -45 1 -67 10 -72 15
-10 328 -12 352 -3 12 5 16 21 16 75 l0 69 -55 0 -55 0 0 234 0 235 53 3 52 3
0 70 0 70 -183 3 c-148 2 -183 0 -188 -11z"/>
<path d="M6644 1616 c-3 -7 -4 -40 -2 -72 l3 -59 158 -5 c157 -5 158 -5 128
-23 -17 -10 -40 -39 -56 -70 -25 -53 -25 -53 -23 -287 l3 -235 54 -3 c30 -2
65 -1 78 3 l23 5 0 305 0 305 99 0 c111 0 111 0 111 75 0 80 21 75 -291 75
-227 0 -281 -3 -285 -14z"/>
<path d="M414 1498 c-56 -57 -109 -118 -118 -136 -27 -52 -31 -122 -11 -182
15 -46 44 -79 256 -295 131 -133 258 -255 281 -271 34 -24 51 -29 103 -29 84
0 115 21 115 76 l0 41 -35 -31 c-42 -36 -104 -42 -145 -13 -56 38 -500 500
-515 535 -36 86 -21 122 110 260 104 109 120 139 80 145 -15 2 -50 -27 -121
-100z"/>
<path d="M9477 1593 c-18 -17 1 -44 97 -142 106 -107 126 -138 126 -192 0 -65
-30 -103 -268 -344 -130 -132 -248 -247 -262 -257 -41 -29 -103 -24 -145 13
l-35 31 0 -41 c0 -49 26 -71 94 -78 87 -10 102 0 376 276 148 149 264 274 275
297 26 52 26 155 1 204 -25 46 -215 240 -236 240 -9 0 -20 -3 -23 -7z"/>
<path d="M4820 1524 c-8 -1 -41 -6 -74 -9 l-59 -7 21 -20 20 -20 -27 -57 c-22
-48 -26 -69 -26 -151 0 -87 3 -101 32 -160 17 -36 43 -77 56 -92 85 -92 211
-145 321 -135 66 7 152 33 162 49 4 6 -12 28 -34 50 -39 40 -40 40 -77 28 -22
-7 -62 -10 -96 -7 -170 15 -284 176 -238 340 12 43 15 44 45 16 l22 -20 6 58
c4 32 9 77 13 101 5 41 5 42 -23 41 -16 -1 -36 -3 -44 -5z"/>
</g>
</svg>
